# xmcd
#
# Track frame offsets:
#	150
#	22788
#	39473
#	59935
#	75295
#	88348
#	103458
#	118337
#	135725
#	155983
#	173121
#	186664
#	206958
#	225399
#	239615
#	260361
#	269993
#	281915
#
# Disc length: 4054 seconds
#
# Revision: 0
# Processed by: cddbd v1.4PL0 Copyright (c) Steve Scherf et al.
# Submitted via: EZCDDA 4.3.3.2
#
DISCID=220fd412
DTITLE=Dixie Chicks - Ultra Rare Trax Disc 7
DYEAR=1900
DGENRE=
TTITLE0=Bloodlines
TTITLE1=Storm Cellar Songs
TTITLE2=White Womens Clothes
TTITLE3=Dance Hall Dream
TTITLE4=Take Me Down To The River
TTITLE5=John Wayne And Jesus
TTITLE6=Snowin On Raton
TTITLE7=Amazing Grace
TTITLE8=The Wedding Song
TTITLE9=Too Far From Texas
TTITLE10=I Need To Know
TTITLE11=C'mon C'mon
TTITLE12=Abilene
TTITLE13=I Wanna Be Your Man Forever
TTITLE14=Beyond The Blue
TTITLE15=Please Be San Antone
TTITLE16=Somewhere Down The Road
TTITLE17=He Didn't Have To Be
EXTD=
EXTT0=
EXTT1=
EXTT2=
EXTT3=
EXTT4=
EXTT5=
EXTT6=
EXTT7=
EXTT8=
EXTT9=
EXTT10=
EXTT11=
EXTT12=
EXTT13=
EXTT14=
EXTT15=
EXTT16=
EXTT17=
PLAYORDER=
